<?xml-stylesheet type="text/css" href="../css/style.css"?>
<svg xmlns="http://www.w3.org/2000/svg" viewBox="0 0 14.41 16">
  <g id="Layer_2" data-name="Layer 2">
    <g id="Layer_1-2" data-name="Layer 1">
      <path class="cls-1"
      d="M12.17,11.53a2.22,2.22,0,0,0-1.66.75L4.36,8.69a2.35,2.35,0,0,0,.09-.6,2.51,2.51,0,0,0-.07-.55l6.31-3.65A2.24,2.24,0,1,0,10,2.23,2.12,2.12,0,0,0,10,2.8L3.73,6.45a2.18,2.18,0,0,0-1.5-.6A2.24,2.24,0,1,0,3.68,9.77L10,13.43a1.86,1.86,0,0,0,0,.33,2.23,2.23,0,1,0,2.23-2.23Z"/>
    </g>
  </g>
</svg>
